<svg xmlns="http://www.w3.org/2000/svg" width="37.857" height="40.284" viewBox="0 0 37.857 40.284">
  <path id="Icon_feather-github" data-name="Icon feather-github" d="M15.4,33.388C6.542,36.045,6.542,28.96,3,28.075M27.8,38.7V31.847a5.969,5.969,0,0,0-1.665-4.623c5.561-.62,11.406-2.728,11.406-12.4a9.634,9.634,0,0,0-2.656-6.641,8.98,8.98,0,0,0-.161-6.679S32.632.887,27.8,4.129a23.7,23.7,0,0,0-12.4,0C10.563.887,8.473,1.507,8.473,1.507a8.98,8.98,0,0,0-.159,6.677A9.635,9.635,0,0,0,5.657,14.88c0,9.6,5.845,11.707,11.406,12.4a5.969,5.969,0,0,0-1.665,4.57V38.7" transform="translate(-1.181 0.082)" fill="none" stroke="#bf8383" stroke-linecap="round" stroke-linejoin="round" stroke-width="3"/>
</svg>
