<svg xmlns="http://www.w3.org/2000/svg" xmlns:xlink="http://www.w3.org/1999/xlink" width="73" height="73" viewBox="0 0 73 73">
  <defs>
    <radialGradient id="radial-gradient" cx="0.836" cy="-0.035" r="1.568" gradientUnits="objectBoundingBox">
      <stop offset="0" stop-color="#bf8383"/>
      <stop offset="1" stop-color="gray"/>
    </radialGradient>
  </defs>
  <g id="logo-jose" transform="translate(-924 -94)">
    <rect id="Rectangle_194" data-name="Rectangle 194" width="73" height="73" transform="translate(924 94)" fill="none"/>
    <g id="Group_1542" data-name="Group 1542" transform="translate(-1220.356 -8505)">
      <g id="Group_1544" data-name="Group 1544" transform="translate(1.097 -0.173)">
        <path id="Union_8" data-name="Union 8" d="M18.855,45.627a3.064,3.064,0,0,1-.389-.154C15.8,44.224,5.469,40.2,3.241,39.2l-.09-.041a3.889,3.889,0,0,1-1.888-4.918A3.477,3.477,0,0,1,4.478,31.91a3.231,3.231,0,0,1,1.326.284c.115.051,11.884,4.717,15.222,6.269a10.218,10.218,0,0,0,2.968.442,8.75,8.75,0,0,0,2.788-.419c.143-.067.335-.153.6-.273,8.228-3.7,13.048-5.882,14.328-6.475a3.231,3.231,0,0,1,.38-.149l.011,0-.02-17.176c0-2.974-.006-5.19.008-6.863h-.777l-9.381,0L18.294,7.538a3.328,3.328,0,0,1-2.46-1.106,3.906,3.906,0,0,1-1.016-2.666A3.636,3.636,0,0,1,18.3,0C20.391,0,31.2.013,38.63.013c5.045,0,6.5,0,6.8-.008.049,0,.1,0,.149,0a3.369,3.369,0,0,1,2.72,1.42,3.973,3.973,0,0,1,.748,2.633c-.028,1.49-.012,20.514.009,28.713a4.851,4.851,0,0,1-.35,2.407c-.678,1.623-2.129,2.793-4.434,3.573-2.647,1.22-14.438,6.522-14.944,6.75l-.046.02A14.3,14.3,0,0,1,24,46.444,16.7,16.7,0,0,1,18.855,45.627Z" transform="translate(2154.259 8612.351)" fill="url(#radial-gradient)"/>
      </g>
    </g>
  </g>
</svg>
