<svg id="ic-cv" xmlns="http://www.w3.org/2000/svg" width="33.277" height="40.956" viewBox="0 0 33.277 40.956">
  <path id="Path_12344" data-name="Path 12344" d="M37.277,5.864A4.861,4.861,0,0,0,32.413,1H8.864A4.861,4.861,0,0,0,4,5.864V37.092a4.861,4.861,0,0,0,4.864,4.864h23.55a4.861,4.861,0,0,0,4.864-4.864Zm-2.56,31.229a2.294,2.294,0,0,1-2.3,2.3H8.864a2.294,2.294,0,0,1-2.3-2.3V5.864a2.294,2.294,0,0,1,2.3-2.3h23.55a2.294,2.294,0,0,1,2.3,2.3Z" transform="translate(-4 -1)" fill="#bf8383"/>
  <path id="Path_12345" data-name="Path 12345" d="M11.712,22.666h15.1a1.164,1.164,0,0,0,1.024-.512,1,1,0,0,0,.256-1.024A8.786,8.786,0,0,0,23.1,14.475a5.2,5.2,0,0,0,1.28-3.456,5.119,5.119,0,0,0-10.239,0,5.747,5.747,0,0,0,1.28,3.456,8.936,8.936,0,0,0-4.991,6.655,1.379,1.379,0,0,0,.256,1.024A1.164,1.164,0,0,0,11.712,22.666ZM16.7,11.147a2.56,2.56,0,1,1,2.56,2.56A2.567,2.567,0,0,1,16.7,11.147Zm2.56,5.119a6.467,6.467,0,0,1,5.887,3.84H13.375A6.467,6.467,0,0,1,19.263,16.267ZM29.758,26.506H9.28a1.28,1.28,0,1,0,0,2.56H29.758a1.28,1.28,0,0,0,0-2.56Zm0,5.119H9.28a1.28,1.28,0,1,0,0,2.56H29.758a1.28,1.28,0,1,0,0-2.56Z" transform="translate(-2.881 0.371)" fill="#bf8383"/>
</svg>
