<svg xmlns="http://www.w3.org/2000/svg" width="40.268" height="40.242" viewBox="0 0 40.268 40.242">
  <g id="ic-whatsapp" transform="translate(-977.023 -697.684)">
    <path id="_Path_" data-name="&lt;Path&gt;" d="M19.147-1A20.121,20.121,0,1,1,8.789,36.371L1.005,39.154A1.5,1.5,0,0,1-.9,37.2L2,29.687A20.121,20.121,0,0,1,19.121-1Zm0,37.242A17.121,17.121,0,1,0,19.147,2h-.024a17.121,17.121,0,0,0-14.2,26.679,1.5,1.5,0,0,1,.155,1.377l-2,5.171L8.463,33.3a1.5,1.5,0,0,1,1.325.156A17.076,17.076,0,0,0,19.145,36.242Z" transform="translate(978.023 698.684)" fill="#bf8383"/>
    <path id="_Path_2" data-name="&lt;Path&gt;" d="M11.358,19.454c2.1,2.1,6.752,4.858,8.906,4.858a4.1,4.1,0,0,0,4.048-3.238V19.454s-1.992-.972-3.238-1.619-3.238,1.619-3.238,1.619a10.557,10.557,0,0,1-4.048-2.429,10.557,10.557,0,0,1-2.429-4.048s2.267-1.992,1.619-3.238S11.358,6.5,11.358,6.5H9.738A4.1,4.1,0,0,0,6.5,10.548C6.5,12.7,9.253,17.349,11.358,19.454Z" transform="translate(981.738 702.399)" fill="#bf8383"/>
  </g>
</svg>
