<svg xmlns="http://www.w3.org/2000/svg" width="42.202" height="40.242" viewBox="0 0 42.202 40.242">
  <g id="Icon_feather-linkedin" data-name="Icon feather-linkedin" transform="translate(1.5 1.5)">
    <path id="Path_12341" data-name="Path 12341" d="M26.761,10.5A13.261,13.261,0,0,1,40.021,23.761V37.481a1.5,1.5,0,0,1-1.5,1.5h-7.84a1.5,1.5,0,0,1-1.5-1.5V23.761a2.42,2.42,0,0,0-4.84,0V37.481a1.5,1.5,0,0,1-1.5,1.5H15a1.5,1.5,0,0,1-1.5-1.5V23.761A13.261,13.261,0,0,1,26.761,10.5ZM37.021,35.981V23.761a10.261,10.261,0,0,0-20.521,0V35.981h4.84V23.761a5.42,5.42,0,0,1,10.84,0V35.981Z" transform="translate(0.681 -0.239)" fill="#bf8383"/>
    <path id="Path_12342" data-name="Path 12342" d="M3,12h7.84a1.5,1.5,0,0,1,1.5,1.5V37.021a1.5,1.5,0,0,1-1.5,1.5H3a1.5,1.5,0,0,1-1.5-1.5V13.5A1.5,1.5,0,0,1,3,12Zm6.34,3H4.5V35.521H9.34Z" transform="translate(-3 0.221)" fill="#bf8383"/>
    <path id="Path_12343" data-name="Path 12343" d="M6.92,1.5A5.42,5.42,0,1,1,1.5,6.92,5.426,5.426,0,0,1,6.92,1.5Zm0,7.84A2.42,2.42,0,1,0,4.5,6.92,2.423,2.423,0,0,0,6.92,9.34Z" transform="translate(-3 -3)" fill="#bf8383"/>
  </g>
</svg>
